<?xml version="1.0" encoding="utf-8"?>
<!-- Generator: Adobe Illustrator 19.1.0, SVG Export Plug-In . SVG Version: 6.00 Build 0)  -->
<svg version="1.1" baseProfile="tiny" id="Layer_1" xmlns="http://www.w3.org/2000/svg" xmlns:xlink="http://www.w3.org/1999/xlink"
	 x="0px" y="0px" viewBox="70.6 447.8 250 36.2" xml:space="preserve">
<path fill="#FFFFFF" d="M77,468.8c0.6-0.7,1.2-1.5,1.8-2.3c0.6-0.8,1.3-1.7,1.8-2.5c0.6-0.8,1.2-1.7,1.7-2.5c0.6-0.8,1-1.6,1.5-2.3
	h7.5c-0.6,0.8-1.3,1.7-2.1,2.6c-0.8,0.9-1.6,1.8-2.4,2.9c-0.8,0.9-1.7,1.8-2.5,2.8c-0.8,0.9-1.6,1.7-2.3,2.5
	c0.8,0.8,1.7,1.8,2.8,2.9c1,1.1,1.9,2.3,2.9,3.6c0.9,1.2,1.8,2.5,2.7,3.7c0.8,1.2,1.5,2.3,1.9,3.3h-7.3c-0.4-0.8-0.9-1.8-1.7-2.9
	c-0.6-1.1-1.4-2.1-2.1-3.2c-0.7-1-1.5-2-2.3-2.9c-0.7-0.9-1.5-1.7-2.1-2.3v11.4h-6.4v-34.5l6.4-1.1L77,468.8L77,468.8z M115.4,482.6
	v-23.3h-6.4v19c-0.9,0.2-1.9,0.3-2.9,0.3c-1.6,0-2.6-0.6-3.1-1.7c-0.6-1.1-0.8-2.8-0.8-5v-12.6h-6.4v13.4c0,1.7,0.1,3.1,0.4,4.5
	c0.3,1.4,0.7,2.6,1.5,3.6s1.7,1.7,3,2.3c1.3,0.6,2.9,0.8,4.9,0.8c1.9,0,3.8-0.2,5.4-0.5C112.8,483.2,114.3,482.8,115.4,482.6
	L115.4,482.6z M136.3,471.1c0,2.7-0.5,4.5-1.5,5.7c-1,1.2-2.3,1.7-3.9,1.7c-0.4,0-0.8,0-1.4-0.1c-0.6,0-1-0.1-1.5-0.2v-13.1
	c0.5-0.3,1-0.5,1.7-0.7c0.6-0.2,1.4-0.3,2-0.3c1.5,0,2.7,0.6,3.3,1.8C136,467.2,136.3,468.9,136.3,471.1L136.3,471.1z M142.8,471.3
	c0-1.8-0.2-3.6-0.6-5.2c-0.4-1.6-1-2.9-1.8-4c-0.8-1.1-1.8-1.9-3-2.6c-1.2-0.6-2.6-0.9-4.1-0.9c-0.8,0-1.7,0.1-2.5,0.3
	c-0.8,0.2-1.7,0.5-2.6,0.8v-12.1l-6.4,1.1v33.8c1.2,0.4,2.6,0.6,4.3,0.9c1.7,0.3,3.4,0.4,5.1,0.4c1.8,0,3.5-0.3,4.9-0.9
	c1.5-0.6,2.7-1.5,3.7-2.6c1-1.1,1.7-2.4,2.3-4C142.5,475,142.8,473.3,142.8,471.3 M145.9,471.5c0,2,0.3,3.9,0.9,5.3
	c0.6,1.6,1.5,2.9,2.7,3.9c1.1,1,2.5,1.8,4.1,2.4c1.7,0.6,3.5,0.8,5.5,0.8c1.6,0,2.9-0.1,4.1-0.4c1.2-0.3,2.4-0.6,3.5-0.9l-0.8-5.3
	c-0.8,0.3-1.7,0.6-2.9,0.8c-1.1,0.3-2.4,0.4-3.6,0.4c-2,0-3.7-0.5-5.1-1.4c-1.3-0.9-1.9-2.1-1.9-3.7h15.6c0-0.3,0.1-0.6,0.1-1.1
	s0-0.8,0-1.3c0-4.1-0.9-7.1-2.8-9.2s-4.5-3.1-8.1-3.1c-1.5,0-2.9,0.3-4.2,0.8c-1.4,0.6-2.6,1.4-3.7,2.4c-1.1,1.1-1.9,2.4-2.6,4.1
	C146.2,467.6,145.9,469.4,145.9,471.5L145.9,471.5z M162,469h-9.7c0.1-0.6,0.2-1.3,0.5-1.9c0.2-0.6,0.6-1.2,0.9-1.7
	c0.4-0.5,0.9-0.8,1.5-1.1c0.6-0.3,1.3-0.4,2.1-0.4c0.8,0,1.6,0.2,2.1,0.5c0.6,0.3,1.1,0.6,1.5,1.2c0.4,0.5,0.6,1,0.8,1.7
	C161.9,467.7,162,468.4,162,469L162,469z M192.3,465.7l1.1-5.9c-0.6-0.2-1.2-0.4-1.9-0.5c-0.7-0.1-1.5-0.2-2.2-0.3
	c-0.7-0.1-1.4-0.2-2-0.2c-0.6,0-1.1-0.1-1.5-0.1c-2.4,0-4.4,0.2-6.2,0.6c-1.7,0.4-3.5,0.8-5.2,1.5v22.6h6.4v-17.9
	c0.9-0.3,1.7-0.4,2.6-0.5c0.8-0.1,1.7-0.1,2.6-0.1c0.4,0,0.8,0,1.4,0.1c0.6,0,1.1,0.1,1.7,0.2c0.6,0.1,1.2,0.2,1.7,0.3
	C191.5,465.5,191.9,465.6,192.3,465.7L192.3,465.7z M198.8,483.4h6.4v-19c0.6-0.1,1-0.1,1.5-0.2c0.5,0,0.9-0.1,1.4-0.1
	c1.6,0,2.6,0.5,3.1,1.5c0.6,1,0.7,2.6,0.7,4.9v12.8h6.4v-13.6c0-1.7-0.2-3.1-0.5-4.5c-0.3-1.4-0.8-2.5-1.6-3.5c-0.7-1-1.7-1.7-3-2.3
	c-1.3-0.6-2.9-0.8-4.8-0.8c-1.9,0-3.8,0.1-5.4,0.4c-1.7,0.3-3,0.6-4.1,0.8L198.8,483.4L198.8,483.4z M222.8,471.5
	c0,2,0.3,3.9,0.9,5.3c0.6,1.6,1.5,2.9,2.7,3.9c1.1,1,2.5,1.8,4.1,2.4c1.7,0.6,3.5,0.8,5.5,0.8c1.6,0,2.9-0.1,4.1-0.4
	c1.2-0.3,2.4-0.6,3.5-0.9l-0.8-5.3c-0.8,0.3-1.7,0.6-2.9,0.8c-1.1,0.3-2.4,0.4-3.6,0.4c-2,0-3.7-0.5-5.1-1.4
	c-1.3-0.9-1.9-2.1-1.9-3.7H245c0-0.3,0.1-0.6,0.1-1.1s0-0.8,0-1.3c0-4.1-0.9-7.1-2.8-9.2s-4.5-3.1-8.1-3.1c-1.5,0-2.9,0.3-4.2,0.8
	c-1.4,0.6-2.6,1.4-3.7,2.4c-1.1,1.1-1.9,2.4-2.6,4.1C223.1,467.6,222.8,469.4,222.8,471.5L222.8,471.5z M229.3,469
	c0.1-0.6,0.2-1.3,0.5-1.9c0.2-0.6,0.6-1.2,0.9-1.7s0.9-0.8,1.5-1.1c0.6-0.3,1.3-0.4,2.1-0.4s1.6,0.2,2.1,0.5
	c0.6,0.3,1.1,0.6,1.5,1.2c0.4,0.5,0.6,1,0.8,1.7c0.2,0.6,0.3,1.2,0.3,1.8L229.3,469L229.3,469z M254.1,464.5v9.9
	c0,2,0.2,3.7,0.6,4.9c0.4,1.3,1,2.2,1.8,2.9c0.8,0.6,1.7,1.1,2.9,1.4c1.1,0.3,2.4,0.4,3.9,0.4c1.3,0,2.6-0.1,4-0.3
	c1.4-0.2,2.6-0.6,3.8-1l-0.8-5.4c-0.6,0.3-1.1,0.5-1.7,0.6c-0.5,0.2-1,0.3-1.5,0.4c-0.5,0.1-0.9,0.2-1.5,0.2c-0.5,0-1,0.1-1.7,0.1
	c-0.6,0-1-0.1-1.5-0.2c-0.5-0.1-0.8-0.3-1.1-0.6c-0.3-0.3-0.6-0.7-0.7-1.3c-0.2-0.6-0.3-1.3-0.3-2.1v-9.8h10.1v-5.2h-10.1v-7.1
	l-6.4,1v6.1h-5.5v5.2H254.1L254.1,464.5z M274,471.5c0,2,0.3,3.9,0.9,5.3c0.6,1.6,1.5,2.9,2.7,3.9c1.1,1,2.5,1.8,4.1,2.4
	c1.7,0.6,3.5,0.8,5.5,0.8c1.6,0,2.9-0.1,4.1-0.4c1.2-0.3,2.4-0.6,3.5-0.9l-0.8-5.3c-0.8,0.3-1.7,0.6-2.9,0.8
	c-1.1,0.3-2.4,0.4-3.6,0.4c-2,0-3.7-0.5-5.1-1.4c-1.3-0.9-1.9-2.1-1.9-3.7h15.6c0-0.3,0.1-0.6,0.1-1.1s0-0.8,0-1.3
	c0-4.1-0.9-7.1-2.8-9.2s-4.5-3.1-8.1-3.1c-1.5,0-2.9,0.3-4.2,0.8c-1.4,0.6-2.6,1.4-3.7,2.4c-1.1,1.1-1.9,2.4-2.6,4.1
	C274.4,467.6,274,469.4,274,471.5L274,471.5z M290.2,469h-9.7c0.1-0.6,0.2-1.3,0.5-1.9c0.2-0.6,0.6-1.2,0.9-1.7
	c0.4-0.5,0.9-0.8,1.5-1.1c0.6-0.3,1.3-0.4,2.1-0.4s1.6,0.2,2.1,0.5c0.6,0.3,1.1,0.6,1.5,1.2c0.4,0.5,0.6,1,0.8,1.7
	C290.1,467.7,290.2,468.4,290.2,469L290.2,469z M309.8,478.6c-1.4,0-2.8-0.2-4.1-0.6c-1.4-0.4-2.7-0.8-3.9-1.3l-1,5.2
	c0.9,0.4,2,0.8,3.5,1.3s3.2,0.7,5.3,0.7c2,0,3.8-0.2,5.2-0.6s2.6-0.9,3.4-1.6c0.8-0.6,1.5-1.4,1.8-2.3s0.6-1.8,0.6-2.9
	c0-1.3-0.3-2.3-0.7-3.2c-0.6-0.8-1.2-1.6-1.9-2.1c-0.8-0.6-1.7-1-2.7-1.4c-1-0.4-1.9-0.7-2.9-1c-0.6-0.2-1.3-0.5-1.8-0.6
	c-0.6-0.2-1.1-0.5-1.5-0.7c-0.5-0.3-0.7-0.5-1-0.8c-0.3-0.3-0.4-0.6-0.4-1c0-0.5,0.3-0.8,0.8-1.3c0.6-0.4,1.7-0.6,3.2-0.6
	s2.9,0.2,4.1,0.6c1.2,0.4,2.1,0.6,2.8,0.8l1-5.3c-1-0.5-2.1-0.8-3.5-1c-1.4-0.3-2.9-0.4-4.4-0.4c-1.8,0-3.4,0.2-4.7,0.6
	c-1.3,0.4-2.4,0.9-3.2,1.7c-0.8,0.7-1.5,1.5-1.8,2.4c-0.4,0.9-0.6,1.8-0.6,2.9c0,1.3,0.3,2.3,0.7,3.1c0.6,0.8,1.2,1.6,1.9,2.1
	c0.8,0.6,1.7,1,2.6,1.4c0.9,0.4,1.9,0.6,2.9,0.9c0.6,0.2,1.3,0.4,1.8,0.6c0.6,0.2,1.1,0.5,1.6,0.6s0.8,0.5,1.1,0.8
	c0.3,0.3,0.4,0.6,0.4,1.1c0,0.6-0.4,1.1-1.2,1.4C312.5,478.5,311.3,478.6,309.8,478.6"/>
</svg>
