<?xml version="1.0" encoding="utf-8"?>
<!-- Generator: Adobe Illustrator 19.1.0, SVG Export Plug-In . SVG Version: 6.00 Build 0)  -->
<svg version="1.1" baseProfile="tiny"
	 id="svg2" xmlns:svg="http://www.w3.org/2000/svg" xmlns:rdf="http://www.w3.org/1999/02/22-rdf-syntax-ns#" xmlns:dc="http://purl.org/dc/elements/1.1/" xmlns:cc="http://creativecommons.org/ns#" xmlns:inkscape="http://www.inkscape.org/namespaces/inkscape" xmlns:sodipodi="http://sodipodi.sourceforge.net/DTD/sodipodi-0.dtd" inkscape:version="0.48.3.1 r9886" sodipodi:docname="nginx_logo_release.svg"
	 xmlns="http://www.w3.org/2000/svg" xmlns:xlink="http://www.w3.org/1999/xlink" x="0px" y="0px" viewBox="-316 363.8 115.1 24.2"
	 xml:space="preserve">
<path fill="#FFFFFF" d="M-294.5,387.9c-0.7,0-1.3-0.3-1.8-0.7l-14.8-14.8v13c0,1.4-1.1,2.5-2.5,2.5s-2.5-1.1-2.5-2.5v-19.1
	c0-1,0.6-1.9,1.5-2.3c0.9-0.4,2-0.2,2.7,0.5l14.8,14.8v-13c0-1.4,1.1-2.5,2.5-2.5s2.5,1.1,2.5,2.5v19.1c0,1-0.6,1.9-1.5,2.3
	C-293.8,387.9-294.1,387.9-294.5,387.9z"/>
<path id="path2996-0" sodipodi:nodetypes="cccccccccccccccscccccccccccccc" inkscape:connector-curvature="0" fill="#FFFFFF" d="
	M-282.9,363.9l-0.7,1.3l-5.3,9.7l-0.7,1.2l0.7,1.2l5.3,9.3l0.7,1.3h1.5h10.9h1.6l0.7-1.4l4-8l1.8-3.6h-4l-10.2,0
	c-1.3,0-2.5,1.2-2.5,2.5c0,1.3,1.2,2.5,2.5,2.5l6.1,0l-1.5,3h-7.9l-3.9-6.9l3.9-7.1h8.4l2,4h5l-3.2-7.6l-0.7-1.4h-1.6h-11.4H-282.9z
	"/>
<path id="path2996-0-5" sodipodi:nodetypes="cccccc" inkscape:connector-curvature="0" fill="#FFFFFF" d="M-257.5,363.8
	c-1.3,0-2.5,1.2-2.5,2.5v6.5h5v-6.5C-255,365-256.2,363.8-257.5,363.8z"/>
<path fill="#FFFFFF" d="M-249.5,388c-0.3,0-0.6-0.1-1-0.2c-0.9-0.4-1.5-1.3-1.5-2.3v-19.1c0-1.4,1.1-2.5,2.5-2.5s2.5,1.1,2.5,2.5v13
	l14.8-14.8c0.7-0.7,1.8-0.9,2.7-0.5c0.9,0.4,1.5,1.3,1.5,2.3v19.1c0,1.4-1.1,2.5-2.5,2.5s-2.5-1.1-2.5-2.5v-13l-14.8,14.8
	C-248.2,387.7-248.9,388-249.5,388z"/>
<path fill="#FFFFFF" d="M-203.5,387.9c-0.6,0-1.3-0.2-1.8-0.7l-19.1-19c-1-1-1-2.6,0-3.5c1-1,2.6-1,3.5,0l19.1,19c1,1,1,2.6,0,3.5
	C-202.2,387.7-202.8,387.9-203.5,387.9z"/>
<path fill="#FFFFFF" d="M-222.5,387.9c-0.6,0-1.3-0.2-1.8-0.7c-1-1-1-2.6,0-3.5l19.1-19c1-1,2.6-1,3.5,0c1,1,1,2.6,0,3.5l-19.1,19
	C-221.2,387.7-221.9,387.9-222.5,387.9z"/>
<path id="path2996-0-5-1" sodipodi:nodetypes="cccccc" inkscape:connector-curvature="0" fill="#FFFFFF" d="M-257.5,387.9
	c-1.3,0-2.5-1.2-2.5-2.5v-10.5h5v10.5C-255,386.7-256.2,387.9-257.5,387.9z"/>
</svg>
