<?xml version="1.0" encoding="utf-8"?>
<!-- Generator: Adobe Illustrator 19.1.0, SVG Export Plug-In . SVG Version: 6.00 Build 0)  -->
<svg version="1.1"
	 id="Layer_1" xmlns:svg="http://www.w3.org/2000/svg" xmlns:rdf="http://www.w3.org/1999/02/22-rdf-syntax-ns#" xmlns:dc="http://purl.org/dc/elements/1.1/" xmlns:cc="http://creativecommons.org/ns#"
	 xmlns="http://www.w3.org/2000/svg" xmlns:xlink="http://www.w3.org/1999/xlink" x="0px" y="0px" viewBox="-2.7 36.2 30.3 29.5"
	 style="enable-background:new -2.7 36.2 30.3 29.5;" xml:space="preserve">
<style type="text/css">
	.st0{fill:#FFFFFF;}
	.st1{fill:#E93442;}
</style>
<path class="st0" d="M24.5,58.9c-0.6-0.1-1.2-0.2-1.8-0.2c-1,0-2,0.2-2.7,0.5c-0.1,0-0.1,0.1-0.1,0.2c0,0,0,0.1,0,0.1
	c0.1,0.2-0.1,0.5-0.7,0.7c-1,0.2-1.6,1.3-2,1.6c-0.4,0.4-1.6,0.7-1.5,0.4c0.1-0.2,0.7-0.8,1-1.4c0.3-0.6,0.6-0.7,0.9-1.3
	c0.1-0.2,0.5-0.7,0.6-1.2c0.1-0.4,0.1-1,0.1-1.2c0.1-0.3,0.4-1,0.4-1.4c0-0.2-0.9,0.3-1.4,0.3s-0.9-0.3-1.3-0.3
	c-0.5,0-0.8,0.4-1.3,0.3c-0.3,0-0.5-0.3-0.9-0.3c-0.6,0-1.4,0.4-2.9,0.3c-1.4,0-2.8-1.8-2.9-2.1c-0.2-0.3-0.5-0.3-0.8-0.1
	c-0.3,0.3-0.6,0.1-0.7-0.1c-0.2-0.3-0.7-1.3-1.5-1.5c-1.1-0.3-1.6,0.6-1.6,1.3c0.1,0.7,0.5,0.9,0.7,1.3c0.2,0.4,0.3,0.6,0.7,0.8
	c0.3,0.1,0.4,0.3,0.3,0.5c-0.1,0.2-0.4,0.2-0.6,0.3c-0.4,0-0.7-0.1-0.9-0.2c-0.2-0.2-0.4-0.4-0.7-0.7c-0.2-0.4-0.6-0.6-1.1-0.6
	C2,54.9,1.8,55,1.6,55c-0.7,0.4-1.6,0.6-2.5,0.6l-1,0c2,5.8,7.5,10,14,10C17.3,65.7,21.9,63,24.5,58.9"/>
<path d="M24.5,58.9c-0.6-0.1-1.2-0.2-1.8-0.2c-1,0-2,0.2-2.7,0.5c-0.1,0-0.1,0.1-0.1,0.2c0,0,0,0.1,0,0.1c0.1,0.2-0.1,0.5-0.7,0.7
	c-1,0.2-1.6,1.3-2,1.6c-0.4,0.4-1.6,0.7-1.5,0.4c0.1-0.2,0.7-0.8,1-1.4c0.3-0.6,0.6-0.7,0.9-1.3c0.1-0.2,0.5-0.7,0.6-1.2
	c0.1-0.4,0.1-1,0.1-1.2c0.1-0.3,0.4-1,0.4-1.4c0-0.2-0.9,0.3-1.4,0.3s-0.9-0.3-1.3-0.3c-0.5,0-0.8,0.4-1.3,0.3
	c-0.3,0-0.5-0.3-0.9-0.3c-0.6,0-1.4,0.4-2.9,0.3c-1.4,0-2.8-1.8-2.9-2.1c-0.2-0.3-0.5-0.3-0.8-0.1c-0.3,0.3-0.6,0.1-0.7-0.1
	c-0.2-0.3-0.7-1.3-1.5-1.5c-1.1-0.3-1.6,0.6-1.6,1.3c0.1,0.7,0.5,0.9,0.7,1.3c0.2,0.4,0.3,0.6,0.7,0.8c0.3,0.1,0.4,0.3,0.3,0.5
	c-0.1,0.2-0.4,0.2-0.6,0.3c-0.4,0-0.7-0.1-0.9-0.2c-0.2-0.2-0.4-0.4-0.7-0.7c-0.2-0.4-0.6-0.6-1.1-0.6C2,54.9,1.8,55,1.6,55
	c-0.7,0.4-1.6,0.6-2.5,0.6h-1c-0.5-1.5-0.8-3.1-0.8-4.7c0-8.2,6.6-14.8,14.8-14.8c8.2,0,14.8,6.6,14.8,14.8
	C26.9,53.9,26,56.6,24.5,58.9"/>
<path d="M15.3,57.6c0.1,0.1,0.2,0.3,0,0.6c-0.1,0.2-0.2,0.3-0.4,0.4c-0.2,0.2-0.6,0.4-1.2,0c-0.3-0.2-0.3-0.3-0.7-0.2
	c-0.3,0-0.4-0.3-0.3-0.5c0.1-0.2,0.5-0.4,1.1-0.1c0.2,0.1,0.6,0.4,1,0.2C15,57.9,15.1,57.8,15.3,57.6C15.3,57.6,15.3,57.6,15.3,57.6
	C15.3,57.6,15.3,57.6,15.3,57.6"/>
<path class="st1" d="M10.9,43.2c-1.7,0.1-1.9,0.3-2.2,0.6c-0.4,0.5-1-0.6-1-0.6c-0.4-0.1-0.8-0.6-0.6-1.2c0.2-0.5,0.7-0.4,0.8-0.2
	c0.2,0.2,0.5,0.5,1,0.5c0.4,0,1-0.1,1.7-0.1c0.7,0,1.2,0.3,1.2,0.5C11.8,42.9,11.8,43.1,10.9,43.2 M12.7,40.4L12.7,40.4
	C12.7,40.4,12.7,40.3,12.7,40.4C12.7,40.3,12.7,40.3,12.7,40.4c0.3-0.3,0.8-0.4,1.4-0.5c0.2,0,0.3,0,0.5,0h0.1
	c0.9,0,1.7,0.4,1.7,0.8c0,0.4-0.8,0.8-1.7,0.8c-0.3,0-0.6-0.1-0.8-0.1c0,0-0.1,0-0.1-0.1c0,0,0-0.1,0.1-0.1c0.6-0.1,1-0.4,1-0.6
	c0-0.3-0.8-0.4-1.7-0.3C12.9,40.3,12.8,40.4,12.7,40.4 M20.4,47c-0.1,0.5-0.4,1.1-1.3,1.6c-0.1,0.1-0.2,0-0.1-0.2
	c0.4-0.6,0.4-0.7,0.5-1c0.1-0.3,0.2-0.8-0.1-1.8c-0.6-2-1.7-4.7-2.6-5.5c-0.8-0.8-2.3-1.1-3.6-0.7c-0.5,0.1-1.4,0.6-3.2,0.2
	c-3.1-0.7-3.5,0.8-3.7,1.5c-0.2,0.7-0.6,2.6-0.6,2.6c-0.1,0.8-0.3,2.1,4.5,3c2.2,0.4,2.3,1,2.4,1.4c0.2,0.7,0.5,1.2,0.8,1.4
	c0.3,0.2,0,0.4-0.4,0.4C12.1,50,8.6,49,6.6,47.8c-1.7-1-1.7-2-1.3-2.8c-2.6-0.3-4.5,0.2-4.8,1.5c-0.6,2.1,4.6,5.6,10.5,7.4
	c6.2,1.9,12.5,0.6,13.3-3.3C24.4,48.9,22.9,47.6,20.4,47"/>
<g id="g3880">
	<path d="M26.7,58.1h0.1l0.2,0.3h0.1L27,58.1c0.1,0,0.2-0.1,0.2-0.2c0-0.2-0.1-0.2-0.3-0.2h-0.3v0.8h0.1
		C26.7,58.5,26.7,58.1,26.7,58.1z M26.7,58.1v-0.2h0.2c0.1,0,0.2,0,0.2,0.1c0,0.1-0.1,0.1-0.2,0.1H26.7z"/>
	<path d="M27.6,58.1c0,0.4-0.3,0.7-0.7,0.7s-0.7-0.3-0.7-0.7s0.3-0.7,0.7-0.7S27.6,57.7,27.6,58.1 M26.9,57.5
		c-0.3,0-0.6,0.3-0.6,0.6c0,0.3,0.3,0.6,0.6,0.6c0.3,0,0.6-0.3,0.6-0.6C27.5,57.8,27.2,57.5,26.9,57.5"/>
</g>
</svg>
